<svg id="Layer_1" data-name="Layer 1" xmlns="http://www.w3.org/2000/svg" viewBox="0 0 520.04 263.62"><defs><style>.cls-1,.cls-2{fill:#fff;}.cls-2{font-size:31.51px;font-family:Tahoma;}</style></defs><path class="cls-1" d="M352.14,194.54a23.83,23.83,0,0,1-2.56,11.22,23,23,0,0,1-6.88,8,32.75,32.75,0,0,1-11,5.35,59.63,59.63,0,0,1-15.1,1.57h-26V135.5h24a125.81,125.81,0,0,1,14.52.61,28.33,28.33,0,0,1,9.28,2.83,16.28,16.28,0,0,1,7.12,6.43,18.61,18.61,0,0,1,2.25,9.34,18.08,18.08,0,0,1-3.38,10.75,22.54,22.54,0,0,1-9.34,7.43v.46a22.83,22.83,0,0,1,12.55,7.53,20.93,20.93,0,0,1,4.45,13.66m-16.83-38.23a12.13,12.13,0,0,0-1.09-5.35,8,8,0,0,0-3.53-3.58,17.35,17.35,0,0,0-6.52-1.89q-3.59-.35-9.92-.34H302.69v24.94h13.69a46.27,46.27,0,0,0,8.34-.54,17.71,17.71,0,0,0,5.54-2.26,9.38,9.38,0,0,0,3.9-4.35,16.8,16.8,0,0,0,1.15-6.63M339.59,195a18.68,18.68,0,0,0-1.46-7.94q-1.45-3.12-5.91-5.31a19,19,0,0,0-6.24-1.83,86.28,86.28,0,0,0-9.59-.4h-13.7v31.54h9.8a88.13,88.13,0,0,0,12.49-.69,20.2,20.2,0,0,0,8-2.92A13.12,13.12,0,0,0,339.59,195" transform="translate(-47.19 -49.43)"/><polygon class="cls-1" points="316.95 171.27 316.95 86.07 373.73 86.07 373.73 96.15 328.99 96.15 328.99 119.5 370.68 119.5 370.68 129.58 328.99 129.58 328.99 161.19 373.73 161.19 373.73 171.27 316.95 171.27"/><path class="cls-1" d="M459.35,222.23a63.42,63.42,0,0,1-16.77-1.92,86.26,86.26,0,0,1-13-4.71V201.42h.86a44.14,44.14,0,0,0,13.5,8.14,40.71,40.71,0,0,0,14.54,2.88q10,0,15.08-3.92a12.36,12.36,0,0,0,5.11-10.31,12.53,12.53,0,0,0-2.67-8.3q-2.68-3.19-8.52-4.74-4.2-1.14-7.66-1.89t-8.71-2a42.83,42.83,0,0,1-8.4-2.92,23.6,23.6,0,0,1-6.57-4.63,19.7,19.7,0,0,1-4.35-6.61,23,23,0,0,1-1.55-8.77q0-10.36,8.58-17.36t21.89-7a69.8,69.8,0,0,1,14.39,1.43,60.3,60.3,0,0,1,12.57,4.07v13.57h-.92a40.38,40.38,0,0,0-11.07-6.5,36.9,36.9,0,0,0-14.17-2.78q-8.38,0-13.56,3.69a11.37,11.37,0,0,0-5.17,9.69,12,12,0,0,0,3,8.63,18,18,0,0,0,8.82,4.69q3.84,1,9.37,2.2t9.19,2.26q9.38,2.69,13.7,8.12a20.82,20.82,0,0,1,4.32,13.38,24,24,0,0,1-2.16,9.84A23.09,23.09,0,0,1,483,214.5a31.94,31.94,0,0,1-9.88,5.72,40.61,40.61,0,0,1-13.78,2" transform="translate(-47.19 -49.43)"/><polygon class="cls-1" points="477.55 171.27 477.55 96.15 447.09 96.15 447.09 86.07 520.03 86.07 520.03 96.15 489.58 96.15 489.58 171.27 477.55 171.27"/><text class="cls-2" transform="translate(408.25 204.62)">PATRAS</text><path class="cls-1" d="M245.42,220.82l-20-11.51H173.31l-20,11.51c19.1,33.19,76.21,87.53,138.1,92.24-21.57-12.08-55.88-55.48-46-92.24" transform="translate(-47.19 -49.43)"/><path class="cls-1" d="M202.67,158.46h0l-.39-.68Zm56.84-109c.32,24.72-20.09,76.13-56.85,86v23.05l26.07,45.16,19.95,11.53c19.19-33.14,37.7-109.77,10.82-165.72" transform="translate(-47.19 -49.43)"/><path class="cls-1" d="M170,203.62h0l-.39.68Zm26.08-68.2c-38.29-.06-113.92,22.23-148.92,73.48,21.24-12.63,76-20.67,102.89,6.26L170,203.62l26.07-45.16Z" transform="translate(-47.19 -49.43)"/><path class="cls-1" d="M187.16,190.46a12.22,12.22,0,1,1,12.22,12.22,12.22,12.22,0,0,1-12.22-12.22" transform="translate(-47.19 -49.43)"/></svg>